<svg xmlns="http://www.w3.org/2000/svg" xmlns:xlink="http://www.w3.org/1999/xlink" viewBox="0 0 100 156.42"><defs><style>.cls-1{fill:url(#linear-gradient);}.cls-2{fill:#d5d6d2;}.cls-3{fill:url(#linear-gradient-2);}.cls-4{fill:#f4f5f5;}.cls-5{fill:#c6ccd0;}.cls-6{fill:url(#radial-gradient);}.cls-7{fill:#3b3b3d;}.cls-8,.cls-9{opacity:0.53;}.cls-8{fill:url(#linear-gradient-3);}.cls-9{fill:url(#linear-gradient-4);}.cls-10{opacity:0.61;}.cls-11{fill:url(#linear-gradient-5);}.cls-12{fill:#fff;}.cls-13{font-size:14px;fill:#231f20;font-family:MyriadPro-Regular, Myriad Pro;}.cls-14{letter-spacing:0.01em;}.cls-15{letter-spacing:-0.01em;}</style><linearGradient id="linear-gradient" x1="2.27" y1="82.98" x2="95.95" y2="82.98" gradientUnits="userSpaceOnUse"><stop offset="0" stop-color="#929197"/><stop offset="0" stop-color="#96959b"/><stop offset="0.02" stop-color="#bfbfc2"/><stop offset="0.04" stop-color="#dcdcde"/><stop offset="0.06" stop-color="#eeefef"/><stop offset="0.07" stop-color="#f4f5f5"/><stop offset="0.9" stop-color="#f4f5f5"/><stop offset="0.93" stop-color="#f1f2f3"/><stop offset="0.95" stop-color="#e9eaeb"/><stop offset="0.96" stop-color="#dbdcdd"/><stop offset="0.98" stop-color="#c7c7ca"/><stop offset="0.99" stop-color="#adadb1"/><stop offset="1" stop-color="#929197"/></linearGradient><linearGradient id="linear-gradient-2" x1="3.85" y1="124.53" x2="95.21" y2="124.53" gradientUnits="userSpaceOnUse"><stop offset="0.51" stop-color="#d6de23" stop-opacity="0.7"/><stop offset="0.58" stop-color="#d7de26" stop-opacity="0.7"/><stop offset="0.64" stop-color="#d8e02f" stop-opacity="0.72"/><stop offset="0.7" stop-color="#dbe23f" stop-opacity="0.74"/><stop offset="0.75" stop-color="#e0e656" stop-opacity="0.77"/><stop offset="0.8" stop-color="#e5ea73" stop-opacity="0.81"/><stop offset="0.84" stop-color="#ecef97" stop-opacity="0.86"/><stop offset="0.89" stop-color="#f4f6c1" stop-opacity="0.92"/><stop offset="0.93" stop-color="#fcfdf1" stop-opacity="0.98"/><stop offset="0.94" stop-color="#fff"/><stop offset="1" stop-color="#fff"/></linearGradient><radialGradient id="radial-gradient" cx="1918.44" cy="21504.37" fy="21474.38844944528" r="124.25" gradientTransform="translate(-890.07 -1482.82) scale(0.49 0.07)" gradientUnits="userSpaceOnUse"><stop offset="0.18" stop-color="#dfe46f"/><stop offset="0.29" stop-color="#e3e885"/><stop offset="0.64" stop-color="#f0f3c6"/><stop offset="0.67" stop-color="#f5f7da"/><stop offset="0.7" stop-color="#fafbeb"/><stop offset="0.75" stop-color="#fdfdf6"/><stop offset="0.81" stop-color="#fffffd"/><stop offset="0.98" stop-color="#fff"/></radialGradient><linearGradient id="linear-gradient-3" x1="47.78" y1="15.39" x2="106.46" y2="9.21" gradientUnits="userSpaceOnUse"><stop offset="0.13" stop-color="#e1f1f8"/><stop offset="0.59" stop-color="#6687a6"/><stop offset="0.91" stop-color="#e1f1f8"/></linearGradient><linearGradient id="linear-gradient-4" x1="3.9" y1="7.5" x2="29.3" y2="15.55" gradientUnits="userSpaceOnUse"><stop offset="0.05" stop-color="#e1f1f8"/><stop offset="0.59" stop-color="#6687a6"/><stop offset="1" stop-color="#e1f1f8"/></linearGradient><linearGradient id="linear-gradient-5" x1="5.44" y1="3.81" x2="94.57" y2="3.81" gradientUnits="userSpaceOnUse"><stop offset="0.06" stop-color="#f4f5f5"/><stop offset="0.45" stop-color="#737e78"/><stop offset="1" stop-color="#f4f5f5"/></linearGradient></defs><title>mosambi juiceAsset 11</title><g id="Layer_2" data-name="Layer 2"><g id="Layer_2-2" data-name="Layer 2"><path class="cls-1" d="M3.39,9.76v135c0,6.33,20.66,11.47,46.14,11.47s46.14-5.14,46.14-11.47V9.76Z"/><path class="cls-2" d="M3,9.63V143c0,.52,0,1,0,1.56,0,2.29,2.29,3.85,4.09,4.86,3.84,2.16,8.27,3.29,12.54,4.21a130,130,0,0,0,18.87,2.43,182.93,182.93,0,0,0,22.09,0,131.54,131.54,0,0,0,19-2.38c4.31-.9,8.79-2,12.66-4.19,1.74-1,3.9-2.48,4-4.69,0-1.91,0-3.82,0-5.73V9.9c0-.28-.51-.36-.71-.36H6.88c-1.19,0-2.41-.08-3.6,0a.86.86,0,0,1-.16,0c-.22,0-.16.14-.08.25s.45.2.63.2H92.18c1.18,0,2.43.11,3.6,0h.16l-.71-.36V142.68c0,.61,0,1.23,0,1.84,0,2-1.79,3.38-3.37,4.34-3.68,2.25-8.1,3.36-12.27,4.27a125.3,125.3,0,0,1-18.81,2.47,180.34,180.34,0,0,1-22.42,0,128,128,0,0,1-18.91-2.42c-4.21-.9-8.68-2-12.39-4.26-1.51-.92-3.19-2.26-3.22-4.19s0-4.14,0-6.21V9.9C3.84,9.6,3,9.43,3,9.63Z"/><path class="cls-3" d="M94.65,93.9c0,2-20.25,3.71-45.22,3.71S4.2,95.94,4.2,93.9H3.85v54.47c0,3.75,20.45,6.79,45.68,6.79s45.68-3,45.68-6.79V93.9Z"/><path class="cls-4" d="M99.79,8.74c0,4.76-22.29,8.64-49.79,8.64S.22,13.5.22,8.74,22.51.09,50,.09,99.79,4,99.79,8.74Z"/><path class="cls-5" d="M99.59,8.71c0,1.93-2.94,3-4.36,3.51A56.87,56.87,0,0,1,83.87,15a216.08,216.08,0,0,1-36.39,2.31c-11.62-.09-23.42-.68-34.85-2.92C10.91,14-1.95,11.72.79,7.72,2.11,5.79,5.22,5,7.29,4.41a84.05,84.05,0,0,1,13-2.51A239.92,239.92,0,0,1,58.17.29,175.69,175.69,0,0,1,87.38,3.12a41.84,41.84,0,0,1,8.9,2.53c1.2.53,3.27,1.47,3.31,3.06,0,.13.42.16.41,0,0-1.71-2.28-2.69-3.56-3.26a46,46,0,0,0-10-2.73C75.29.66,63.78.12,52.43,0A220.16,220.16,0,0,0,16.51,2.24,64.65,64.65,0,0,0,5.16,4.85c-1.67.58-4.22,1.42-5,3.2-.66,1.49,1,2.66,2.11,3.28A31.06,31.06,0,0,0,11,14.2c10.63,2.33,21.67,2.94,32.51,3.19a238.55,238.55,0,0,0,37-1.73A85.23,85.23,0,0,0,93,13.21c2.14-.62,4.81-1.37,6.39-3.09a2.15,2.15,0,0,0,.6-1.37C100,8.63,99.59,8.59,99.59,8.71Z"/><path class="cls-4" d="M94.84,8c0,3.06-20.07,5.55-44.84,5.55S5.17,11.05,5.17,8,25.24,2.44,50,2.44,94.84,4.93,94.84,8Z"/><path class="cls-5" d="M94.64,8c0,.68-.86,1.08-1.37,1.33a16.68,16.68,0,0,1-3.65,1.16A91.12,91.12,0,0,1,77,12.33a305.51,305.51,0,0,1-38.27.94c-5.85-.18-11.7-.52-17.52-1.12A76.61,76.61,0,0,1,9.35,10.23C8.58,10,4.74,9.15,5.46,7.65c.32-.69,1.3-1,1.94-1.28a25.67,25.67,0,0,1,4.12-1.14A111.47,111.47,0,0,1,24.91,3.48c6.16-.52,12.35-.78,18.54-.9A281.86,281.86,0,0,1,80.54,4,67.94,67.94,0,0,1,90.66,5.75c.94.24,3.93.84,4,2.24,0,.12.42.11.41,0,0-1.43-2.88-2-3.86-2.31A68.24,68.24,0,0,0,80.08,3.79,283.5,283.5,0,0,0,43.45,2.41C33,2.59,22.39,3,12.13,4.93c-2.12.4-4.93.78-6.68,2.2-1.2,1,.17,1.92,1.09,2.37,2.65,1.23,5.75,1.63,8.59,2.07,5,.76,10,1.17,15,1.48a327.42,327.42,0,0,0,38.24.08,144.64,144.64,0,0,0,19.47-2.08,25.74,25.74,0,0,0,5.37-1.47c.64-.27,1.77-.75,1.8-1.59C95.06,7.87,94.64,7.86,94.64,8Z"/><path class="cls-6" d="M95.22,93.44c0,3.46-20.46,6.27-45.69,6.27S3.85,96.9,3.85,93.44s20.45-6.28,45.68-6.28S95.22,90,95.22,93.44Z"/><path class="cls-7" d="M20.47,47.29l0-.65a97.9,97.9,0,0,1-13-2.37l0,.67A97.78,97.78,0,0,0,20.47,47.29Z"/><path class="cls-7" d="M17,52.11l0-.66C14,51,11.33,50.51,9,49.94l0,.67C11.36,51.17,14.05,51.67,17,52.11Z"/><path class="cls-7" d="M7.14,55v.66A98.21,98.21,0,0,0,20.06,58l0-.64A96.21,96.21,0,0,1,7.14,55Z"/><path class="cls-7" d="M9,60.3,9,61c2.37.56,5.06,1.07,8,1.51l0-.65C14,61.38,11.33,60.87,9,60.3Z"/><path class="cls-7" d="M20.49,68l0-.66a103.73,103.73,0,0,1-13-2.22l0,.67A108.22,108.22,0,0,0,20.49,68Z"/><path class="cls-7" d="M17.11,72.82l0-.65c-3-.41-5.68-.9-8.1-1.44l0,.66C11.43,71.93,14.15,72.4,17.11,72.82Z"/><path class="cls-7" d="M20.45,77.76A105.68,105.68,0,0,1,7.57,75.52l0,.67,1.08.26,0-.53,0,.53a111.13,111.13,0,0,0,11.8,2Z"/><path class="cls-7" d="M20.45,88A105.84,105.84,0,0,1,7.57,85.77l0,.67,1.08.25,0-.53,0,.53a110.94,110.94,0,0,0,11.8,2Z"/><path class="cls-7" d="M20.38,98.38A106,106,0,0,1,7.5,96.16l0,.66,1.08.26,0-.53,0,.53a111.13,111.13,0,0,0,11.8,2Z"/><path class="cls-7" d="M20.45,108.77a103.93,103.93,0,0,1-12.88-2.23l0,.66,1.08.27,0-.54,0,.54a113.74,113.74,0,0,0,11.8,2Z"/><path class="cls-7" d="M8.79,81l0,.67c2.4.55,5.1,1,8.06,1.46l0-.65C13.89,82.05,11.19,81.55,8.79,81Z"/><path class="cls-7" d="M9,91.31V92c2.4.55,5.1,1,8.06,1.47l0-.66C14.1,92.36,11.4,91.87,9,91.31Z"/><path class="cls-7" d="M8.86,101.77l0,.66c2.4.55,5.1,1,8.06,1.46l0-.65C14,102.82,11.26,102.32,8.86,101.77Z"/><path class="cls-7" d="M8.74,117.71a108.63,108.63,0,0,0,11.8,2l0-.65a103.93,103.93,0,0,1-12.88-2.23l0,.67Z"/><path class="cls-7" d="M20.47,130l0-.64a103.93,103.93,0,0,1-12.88-2.23l0,.66,1.08.26A111.13,111.13,0,0,0,20.47,130Z"/><path class="cls-7" d="M20.52,139.78a103.93,103.93,0,0,1-12.88-2.23l0,.67,1.08.25a110.94,110.94,0,0,0,11.8,2Z"/><path class="cls-7" d="M16.94,114.13l0-.65c-3-.42-5.66-.92-8.06-1.47l0,.66C11.28,113.22,14,113.71,16.94,114.13Z"/><path class="cls-7" d="M9.09,123c2.4.55,5.1,1,8.05,1.46v-.65c-3-.43-5.67-.93-8.06-1.48Z"/><path class="cls-7" d="M9,133.44c2.4.55,5.1,1,8.06,1.46l0-.64c-3-.43-5.66-.93-8.06-1.48Z"/><path class="cls-8" d="M96.93,8.06s-2.24,5.41-36.21,6.26S43,15.56,66.76,15C92,14.46,102.13,8.63,96.93,8.06Z"/><path class="cls-9" d="M32.51,14.18S4.15,12.78,4.19,7.8c0,0,.15-1.29-1.12-.15s-1.43,3,8.09,5.18S45.43,14.89,32.51,14.18Z"/><g class="cls-10"><path class="cls-11" d="M50,1.58c23.09,0,42.09,2.32,44.57,5.31C92.09,3.43,73.09.73,50,.73S7.92,3.43,5.44,6.89C7.92,3.9,26.92,1.58,50,1.58Z"/></g><rect class="cls-12" x="5.49" y="82.98" width="88.92" height="17.52"/><text class="cls-13" transform="translate(8.32 96.47) scale(0.95 1)"><tspan class="cls-14">M</tspan><tspan x="11.34" y="0">osambi Jui</tspan><tspan class="cls-15" x="73.37" y="0">c</tspan><tspan x="79.56" y="0">e</tspan></text></g></g></svg>