<svg xmlns="http://www.w3.org/2000/svg" xmlns:xlink="http://www.w3.org/1999/xlink" viewBox="0 0 100 154.32"><defs><style>.cls-1{fill:url(#linear-gradient);}.cls-2{fill:#d5d6d2;}.cls-3{fill:url(#linear-gradient-2);}.cls-4{fill:#f4f5f5;}.cls-5{fill:#c6ccd0;}.cls-6{fill:url(#radial-gradient);}.cls-7{fill:#3b3b3d;}.cls-8,.cls-9{opacity:0.53;}.cls-8{fill:url(#linear-gradient-3);}.cls-9{fill:url(#linear-gradient-4);}.cls-10{opacity:0.61;}.cls-11{fill:url(#linear-gradient-5);}.cls-12{fill:#fff;}.cls-13{font-size:14px;fill:#231f20;font-family:MyriadPro-Regular, Myriad Pro;}.cls-14{letter-spacing:-0.01em;}.cls-15{letter-spacing:-0.01em;}.cls-16{letter-spacing:0em;}</style><linearGradient id="linear-gradient" x1="2.27" y1="81.86" x2="95.95" y2="81.86" gradientUnits="userSpaceOnUse"><stop offset="0" stop-color="#929197"/><stop offset="0" stop-color="#96959b"/><stop offset="0.02" stop-color="#bfbfc2"/><stop offset="0.04" stop-color="#dcdcde"/><stop offset="0.06" stop-color="#eeefef"/><stop offset="0.07" stop-color="#f4f5f5"/><stop offset="0.9" stop-color="#f4f5f5"/><stop offset="0.93" stop-color="#f1f2f3"/><stop offset="0.95" stop-color="#e9eaeb"/><stop offset="0.96" stop-color="#dbdcdd"/><stop offset="0.98" stop-color="#c7c7ca"/><stop offset="0.99" stop-color="#adadb1"/><stop offset="1" stop-color="#929197"/></linearGradient><linearGradient id="linear-gradient-2" x1="3.85" y1="122.9" x2="95.21" y2="122.9" gradientUnits="userSpaceOnUse"><stop offset="0" stop-color="#f2e7c0"/><stop offset="0.17" stop-color="#f2e6bd"/><stop offset="0.31" stop-color="#f4e5b3"/><stop offset="0.43" stop-color="#f6e2a2"/><stop offset="0.51" stop-color="#f8e094"/><stop offset="0.67" stop-color="#f8e197"/><stop offset="0.79" stop-color="#f7e3a1"/><stop offset="0.9" stop-color="#f5e6b2"/><stop offset="1" stop-color="#f3eac7"/></linearGradient><radialGradient id="radial-gradient" cx="2052.59" cy="21739.75" fy="21712.79085895979" r="111.72" gradientTransform="translate(-1068.51 -1656.12) scale(0.54 0.08)" gradientUnits="userSpaceOnUse"><stop offset="0.18" stop-color="#fff"/><stop offset="0.26" stop-color="#fdfbf0"/><stop offset="0.64" stop-color="#f5e7af"/><stop offset="0.67" stop-color="#f5e8b3"/><stop offset="0.75" stop-color="#f5eaba"/><stop offset="0.98" stop-color="#f5eabc"/></radialGradient><linearGradient id="linear-gradient-3" x1="47.79" y1="15.24" x2="106.45" y2="9.06" gradientUnits="userSpaceOnUse"><stop offset="0.13" stop-color="#e1f1f8"/><stop offset="0.59" stop-color="#6687a6"/><stop offset="0.91" stop-color="#e1f1f8"/></linearGradient><linearGradient id="linear-gradient-4" x1="3.92" y1="7.33" x2="29.3" y2="15.38" gradientUnits="userSpaceOnUse"><stop offset="0.05" stop-color="#e1f1f8"/><stop offset="0.59" stop-color="#6687a6"/><stop offset="1" stop-color="#e1f1f8"/></linearGradient><linearGradient id="linear-gradient-5" x1="5.44" y1="3.76" x2="94.57" y2="3.76" gradientUnits="userSpaceOnUse"><stop offset="0.06" stop-color="#f4f5f5"/><stop offset="0.45" stop-color="#737e78"/><stop offset="1" stop-color="#f4f5f5"/></linearGradient></defs><title>lemon juiceAsset 10</title><g id="Layer_2" data-name="Layer 2"><g id="Layer_2-2" data-name="Layer 2"><path class="cls-1" d="M3.39,9.63V142.77c0,6.24,20.66,11.31,46.14,11.31S95.67,149,95.67,142.77V9.63Z"/><path class="cls-2" d="M2.94,9.49V141.2c0,.47,0,1,0,1.42.05,2.4,2.53,4,4.41,5a47,47,0,0,0,12.59,4.05A130.13,130.13,0,0,0,38.61,154a186.19,186.19,0,0,0,21.78,0,134.56,134.56,0,0,0,18.77-2.29,46.68,46.68,0,0,0,12.7-4c1.81-1,4.2-2.49,4.27-4.8.05-1.82,0-3.65,0-5.47V9.78c0-.29-.53-.38-.74-.38H6.87c-1.19,0-2.42-.08-3.6,0H3.11c-.22,0-.17.14-.08.26a.92.92,0,0,0,.65.2H92.2a33.07,33.07,0,0,0,3.59,0H96l-.74-.37V140.86c0,.58,0,1.16,0,1.73,0,2.06-1.95,3.44-3.57,4.38-3.76,2.19-8.2,3.28-12.42,4.17a129.38,129.38,0,0,1-18.61,2.37,183.09,183.09,0,0,1-22.1,0,130.53,130.53,0,0,1-18.7-2.32c-4.26-.87-8.75-1.94-12.54-4.15-1.55-.9-3.37-2.24-3.42-4.21s0-4,0-6V9.78C3.85,9.46,2.94,9.28,2.94,9.49Z"/><path class="cls-3" d="M94.65,92.74c0,2-20.25,3.66-45.22,3.66S4.2,94.76,4.2,92.74H3.85v53.64c0,3.7,20.45,6.69,45.68,6.69s45.68-3,45.68-6.69V92.74Z"/><path class="cls-4" d="M99.79,8.62c0,4.7-22.29,8.53-49.79,8.53S.22,13.32.22,8.62,22.51.09,50,.09,99.79,3.91,99.79,8.62Z"/><path class="cls-5" d="M99.59,8.6c0,1.9-2.94,2.91-4.36,3.46a57.48,57.48,0,0,1-11.36,2.71A218.16,218.16,0,0,1,47.48,17c-11.62-.08-23.42-.67-34.85-2.88C10.91,13.83-1.95,11.57.79,7.61,2.11,5.71,5.22,5,7.29,4.35a86.42,86.42,0,0,1,13-2.48A243.54,243.54,0,0,1,58.17.29,178.88,178.88,0,0,1,87.38,3.07a42.39,42.39,0,0,1,8.9,2.51c1.2.52,3.27,1.45,3.31,3,0,.12.42.15.41,0C100,7,97.72,6,96.44,5.42a46.45,46.45,0,0,0-10-2.7C75.29.65,63.78.12,52.43,0a224.69,224.69,0,0,0-35.92,2.2A65.46,65.46,0,0,0,5.16,4.78c-1.67.58-4.22,1.4-5,3.16-.66,1.47,1,2.63,2.11,3.24A31.3,31.3,0,0,0,11,14c10.63,2.29,21.67,2.89,32.51,3.14a241,241,0,0,0,37-1.7A85.16,85.16,0,0,0,93,13c2.14-.61,4.81-1.35,6.39-3a2.07,2.07,0,0,0,.6-1.35C100,8.51,99.59,8.48,99.59,8.6Z"/><path class="cls-4" d="M94.84,7.88c0,3-20.07,5.47-44.84,5.47S5.17,10.9,5.17,7.88,25.24,2.4,50,2.4,94.84,4.86,94.84,7.88Z"/><path class="cls-5" d="M94.64,7.88c0,.67-.86,1.07-1.37,1.32a17.18,17.18,0,0,1-3.65,1.14A91.06,91.06,0,0,1,77,12.16a309.37,309.37,0,0,1-38.27.94C32.87,12.92,27,12.58,21.2,12a77.79,77.79,0,0,1-11.85-1.9C8.58,9.89,4.74,9,5.46,7.55c.32-.68,1.3-1,1.94-1.27a25.61,25.61,0,0,1,4.12-1.12A113.49,113.49,0,0,1,24.91,3.43c6.16-.51,12.35-.77,18.54-.88A283.58,283.58,0,0,1,80.54,4,70.58,70.58,0,0,1,90.66,5.67c.94.24,3.93.84,4,2.21,0,.12.42.11.41,0,0-1.41-2.88-2-3.86-2.27A67.14,67.14,0,0,0,80.08,3.74,287.11,287.11,0,0,0,43.45,2.38C33,2.56,22.39,2.92,12.13,4.86,10,5.26,7.2,5.63,5.45,7c-1.2,1,.17,1.89,1.09,2.33a32.13,32.13,0,0,0,8.59,2c5,.75,10,1.16,15,1.47A336.44,336.44,0,0,0,68.41,13,149.65,149.65,0,0,0,87.88,10.9a26.32,26.32,0,0,0,5.37-1.45c.64-.26,1.77-.74,1.8-1.57C95.06,7.76,94.64,7.75,94.64,7.88Z"/><path class="cls-6" d="M95.22,92.18c0,3.42-20.46,6.19-45.69,6.19S3.85,95.6,3.85,92.18,24.3,86,49.53,86,95.22,88.76,95.22,92.18Z"/><path class="cls-7" d="M20.47,46.65l0-.63a99.86,99.86,0,0,1-13-2.35l0,.66A98.2,98.2,0,0,0,20.47,46.65Z"/><path class="cls-7" d="M17,51.41l0-.65c-2.94-.43-5.64-.93-8-1.49l0,.66C11.36,50.48,14.05,51,17,51.41Z"/><path class="cls-7" d="M7.14,54.27v.66a100.49,100.49,0,0,0,12.91,2.32l0-.64A98.43,98.43,0,0,1,7.14,54.27Z"/><path class="cls-7" d="M9,59.49l0,.65c2.37.56,5.06,1,8,1.49L17,61C14,60.55,11.33,60.05,9,59.49Z"/><path class="cls-7" d="M20.49,67.05l0-.64a108.05,108.05,0,0,1-13-2.19l0,.65A106.73,106.73,0,0,0,20.49,67.05Z"/><path class="cls-7" d="M17.11,71.84l0-.64c-3-.41-5.68-.89-8.1-1.42l0,.65C11.43,71,14.15,71.43,17.11,71.84Z"/><path class="cls-7" d="M20.45,76.71a108.33,108.33,0,0,1-12.88-2.2l0,.66,1.08.25,0-.53,0,.53a114.13,114.13,0,0,0,11.8,1.93Z"/><path class="cls-7" d="M20.45,86.81a104.4,104.4,0,0,1-12.88-2.2l0,.66,1.08.25,0-.52,0,.52a111.49,111.49,0,0,0,11.8,1.93Z"/><path class="cls-7" d="M20.38,97.06A106.33,106.33,0,0,1,7.5,94.86l0,.65,1.08.26,0-.52,0,.52A111.49,111.49,0,0,0,20.4,97.7Z"/><path class="cls-7" d="M20.45,107.31a106.33,106.33,0,0,1-12.88-2.2l0,.65,1.08.26,0-.53,0,.53a111.68,111.68,0,0,0,11.8,1.92Z"/><path class="cls-7" d="M8.79,79.9l0,.66c2.4.54,5.1,1,8.06,1.44l0-.64C13.89,80.94,11.19,80.45,8.79,79.9Z"/><path class="cls-7" d="M9,90.08v.65c2.4.55,5.1,1,8.06,1.45l0-.65C14.1,91.11,11.4,90.63,9,90.08Z"/><path class="cls-7" d="M8.86,100.4l0,.65c2.4.54,5.1,1,8.06,1.44l0-.64C14,101.43,11.26,101,8.86,100.4Z"/><path class="cls-7" d="M8.74,116.12A109.15,109.15,0,0,0,20.54,118l0-.63a106.33,106.33,0,0,1-12.88-2.2l0,.65Z"/><path class="cls-7" d="M20.47,128.29l0-.63a106.33,106.33,0,0,1-12.88-2.2l0,.65,1.08.25A109,109,0,0,0,20.47,128.29Z"/><path class="cls-7" d="M20.52,137.9a106.33,106.33,0,0,1-12.88-2.2l0,.66,1.08.25a111.49,111.49,0,0,0,11.8,1.93Z"/><path class="cls-7" d="M16.94,112.6l0-.65c-3-.42-5.66-.9-8.06-1.45l0,.65C11.28,111.7,14,112.18,16.94,112.6Z"/><path class="cls-7" d="M9.09,121.33c2.4.54,5.1,1,8.05,1.45v-.65c-3-.42-5.67-.91-8.06-1.46Z"/><path class="cls-7" d="M9,131.64c2.4.54,5.1,1,8.06,1.44l0-.63c-3-.43-5.66-.91-8.06-1.46Z"/><path class="cls-8" d="M96.93,8s-2.24,5.33-36.21,6.18-17.68,1.22,6,.7C92,14.27,102.13,8.51,96.93,8Z"/><path class="cls-9" d="M32.51,14S4.15,12.6,4.19,7.69c0,0,.15-1.26-1.12-.15s-1.43,2.94,8.09,5.12S45.43,14.69,32.51,14Z"/><g class="cls-10"><path class="cls-11" d="M50,1.56c23.09,0,42.09,2.29,44.57,5.24C92.09,3.38,73.09.72,50,.72S7.92,3.38,5.44,6.8C7.92,3.85,26.92,1.56,50,1.56Z"/></g><rect class="cls-12" x="5.66" y="83.16" width="87.74" height="16.43"/><text class="cls-13" transform="translate(12.94 95.82)"><tspan class="cls-14">L</tspan><tspan x="6.41" y="0">emon Jui</tspan><tspan class="cls-15" x="59.7" y="0">c</tspan><tspan class="cls-16" x="65.88" y="0">e</tspan></text></g></g></svg>